# xmcd
#
# Track frame offsets: 
#        150
#        12978
#        30292
#        48651
#        60103
#        81547
#        101661
#        116231
#        134412
#        150161
#        167898
#        185810
#        199064
#        214739
#
# Disc length: 3105 seconds
#
# Revision: 0
# Processed by: cddbd v1.5.2PL0 Copyright (c) Steve Scherf et al.
# Submitted via: ExactAudioCopy v0.99pb4
#
DISCID=be0c1f0e
DTITLE=鄧麗君 - 鄧麗君黃金珍藏版4
DYEAR=1900
DGENRE=pop
TTITLE0=美酒加咖啡
TTITLE1=愛人(日語)
TTITLE2=愛的箴言
TTITLE3=江水悠悠淚\長流
TTITLE4=你我相伴左右
TTITLE5=恰似你的溫柔
TTITLE6=我要對你說
TTITLE7=浪花節人生(日語)
TTITLE8=你怎麼說
TTITLE9=償還(日語)
TTITLE10=人兒不能留
TTITLE11=郊道
TTITLE12=四個願望
TTITLE13=誰能禁止我的愛
EXTD=
EXTT0=
EXTT1=
EXTT2=
EXTT3=
EXTT4=
EXTT5=
EXTT6=
EXTT7=
EXTT8=
EXTT9=
EXTT10=
EXTT11=
EXTT12=
EXTT13=
PLAYORDER=
